<svg width="227" height="188" viewBox="0 0 227 188" fill="none" xmlns="http://www.w3.org/2000/svg">
<path opacity="0.1" d="M155.253 75.4804C154.655 74.8447 153.941 74.4245 153.125 73.9443C152.921 73.8242 152.716 73.7041 152.513 73.5841C154.054 73.215 155.596 72.8459 156.947 72.0813C157.325 71.8782 157.09 71.315 156.771 71.4103C155.025 71.6594 153.324 72.0761 151.623 72.4929C152.376 71.0927 153.129 69.6924 153.882 68.2922C154.23 67.6459 153.312 67.1057 152.964 67.7519C152.211 69.1522 151.4 70.6601 150.647 72.0603C150.251 70.5507 149.796 69.1487 149.342 67.7468C149.107 67.1835 148.307 67.4219 148.542 67.9852C148.792 69.267 149.042 70.5489 149.395 71.8909C148.375 71.2906 147.355 70.6903 146.277 70.1977C145.869 69.9575 145.522 70.6038 145.929 70.8439C147.096 71.672 148.217 72.3323 149.34 72.9927C147.958 73.3141 146.519 73.7432 145.181 74.2323C144.542 74.4231 144.863 75.3218 145.445 75.2388C146.827 74.9174 148.15 74.7037 149.43 74.3222C148.792 75.5071 148.098 76.7996 147.664 78.1045C147.548 78.3199 147.956 78.56 148.174 78.4046C148.958 77.4476 149.595 76.2628 150.232 75.0779C150.422 75.4735 150.453 75.9166 150.643 76.3122C150.964 77.2109 151.287 78.1096 151.668 78.9007C151.756 79.2361 152.235 79.0931 152.147 78.7576C151.984 77.8112 151.924 76.9248 151.762 75.9784C151.688 75.3675 151.453 74.8042 151.321 74.301C151.831 74.6011 152.239 74.8413 152.749 75.1414C153.565 75.6217 154.178 75.9819 155.11 76.2467C155.269 76.199 155.501 75.7682 155.253 75.4804Z" fill="#030229"/>
<path opacity="0.1" d="M20.6218 66.1711C20.0237 65.5355 19.3097 65.1153 18.4937 64.635C18.2897 64.515 18.0857 64.3949 17.8817 64.2749C19.4231 63.9058 20.9646 63.5367 22.3158 62.7721C22.6937 62.569 22.4595 62.0058 22.1396 62.1011C20.3501 62.1824 18.5909 62.7069 16.8895 63.1236C17.6428 61.7234 18.3959 60.3232 19.1492 58.9229C19.4968 58.2767 18.5788 57.7364 18.2312 58.3827C17.478 59.7829 16.6669 61.2908 15.9136 62.6911C15.5171 61.1814 15.0627 59.7794 14.6082 58.3775C14.374 57.8142 13.5744 58.0526 13.8085 58.6159C14.059 59.8978 14.3094 61.1797 14.6619 62.5216C13.642 61.9213 12.622 61.321 11.5441 60.8284C11.1362 60.5883 10.7885 61.2345 11.1965 61.4747C12.3625 62.3027 13.4844 62.9631 14.6064 63.6234C13.2249 63.9448 11.7855 64.3739 10.4481 64.8631C9.80842 65.0538 10.1307 65.9525 10.7125 65.8695C12.0939 65.5481 13.4174 65.3344 14.697 64.953C14.0596 66.1378 13.3643 67.4303 12.9311 68.7352C12.8152 68.9506 13.2232 69.1907 13.4411 69.0353C14.2244 68.0783 14.8617 66.8935 15.499 65.7087C15.6891 66.1042 15.7194 66.5474 15.9094 66.9429C16.2317 67.8416 16.5541 68.7404 16.9342 69.5314C17.0223 69.8669 17.5021 69.7238 17.4141 69.3884C17.2517 68.4419 17.1913 67.5556 17.029 66.6091C16.9548 65.9982 16.7206 65.435 16.5884 64.9317C17.0984 65.2319 17.5063 65.472 18.0163 65.7722C18.8324 66.2524 19.4443 66.6126 20.3762 66.8774C20.5361 66.8297 20.7678 66.3989 20.6218 66.1711Z" fill="#030229"/>
<path d="M57.2269 41.06C56.4526 39.7534 55.7802 38.5068 55.5437 36.9495C55.263 35.2244 55.6082 33.584 55.7494 31.8236C55.7494 31.8236 55.8074 31.7159 55.7054 31.6559L55.6034 31.5958C55.6034 31.5958 55.6034 31.5958 55.4434 31.6435C55.4434 31.6435 55.4434 31.6435 55.3855 31.7512C53.5152 34.4793 50.7824 35.5653 47.7575 36.1958C47.5976 36.2435 47.4818 36.4589 47.5258 36.6266C49.1903 39.0244 49.1559 42.833 48.5953 45.6229C48.5814 45.8983 48.8874 46.0784 49.1053 45.923C50.2664 44.7629 51.2677 43.6505 52.6769 42.7782C54.0862 41.9059 55.5256 41.4768 57.053 41.3831C57.213 41.3354 57.3289 41.12 57.2269 41.06Z" fill="#605BFF"/>
<path d="M194.366 166.713C193.592 165.406 192.919 164.16 192.785 162.662C192.504 160.937 192.849 159.297 192.991 157.537C192.991 157.537 193.048 157.429 192.947 157.369L192.845 157.309C192.845 157.309 192.845 157.309 192.685 157.357C192.685 157.357 192.685 157.357 192.626 157.464C190.757 160.192 188.024 161.278 184.999 161.909C184.839 161.956 184.723 162.172 184.767 162.34C186.432 164.737 186.397 168.546 185.837 171.336C185.823 171.611 186.128 171.791 186.347 171.636C187.508 170.476 188.509 169.364 189.919 168.491C191.328 167.619 192.767 167.19 194.294 167.096C194.294 167.096 194.41 166.881 194.366 166.713Z" fill="#605BFF"/>
<path d="M134.625 95.5323C134.041 94.6212 133.66 93.8302 133.455 92.716C133.305 91.4941 133.522 90.3446 133.533 89.0751C133.533 89.0751 133.533 89.0751 133.431 89.0151L133.328 88.955C133.328 88.955 133.328 88.955 133.271 89.0628C131.966 90.9892 130.091 91.7291 127.968 92.1812C127.808 92.2288 127.75 92.3366 127.852 92.3966C129.078 94.111 128.998 96.7578 128.638 98.6737C128.522 98.8891 128.828 99.0692 128.944 98.8537C129.669 98.0044 130.497 97.2151 131.47 96.6536C132.444 96.0921 133.404 95.806 134.509 95.7477C134.612 95.8077 134.727 95.5923 134.625 95.5323Z" fill="#605BFF"/>
<path d="M98.2439 99.0062C97.221 97.4118 96.5053 95.9975 96.2823 94.1647C95.9713 91.9964 96.3302 90.0806 96.5435 87.937C96.5435 87.937 96.6009 87.8293 96.4995 87.7693L96.3971 87.7092C96.3971 87.7092 96.2957 87.6492 96.2373 87.7569L96.1799 87.8646C93.9175 91.0712 90.589 92.5157 86.9824 93.2292C86.8224 93.2768 86.6486 93.6 86.8526 93.72C88.9113 96.6334 88.8932 101.161 88.1448 104.549C88.0729 104.932 88.481 105.172 88.7568 104.909C90.0339 103.534 91.4129 102.218 93.04 101.191C94.6671 100.163 96.4268 99.6384 98.3176 99.6171C98.1138 99.497 98.3893 99.2339 98.2439 99.0062Z" fill="#605BFF"/>
<path d="M88.8167 57.3679C88.5476 54.3733 88.2204 51.4863 87.3115 48.6824C86.7551 47.2204 86.1986 45.7584 85.4243 44.4518C84.9861 43.7685 84.49 43.1929 84.0518 42.5096C83.8038 42.2218 83.5557 41.934 83.3657 41.5385C83.1175 41.2507 83.0294 40.9152 82.6655 40.8428C82.4615 40.7228 82.3016 40.7704 82.2877 41.0459C82.1 41.6445 82.5382 42.3278 82.7724 42.891C83.0506 43.622 83.3867 44.2453 83.665 44.9763C84.2794 46.3306 84.8358 47.7926 85.2903 49.1945C86.0972 51.9384 86.5402 54.6099 86.7653 57.4368C86.8558 58.7664 88.8493 58.8052 88.8167 57.3679Z" fill="#FF8F6B"/>
<path d="M64.3973 99.8772C64.6821 97.3504 63.3236 95.1328 61.8492 93.1305C60.3748 91.1282 58.5364 89.0536 56.3226 88.1761C54.2689 87.2509 51.4317 87.2828 49.6749 88.8014C48.4116 89.9015 46.8008 91.6478 47.4455 93.4453C47.7097 94.4517 48.7738 95.2198 49.7334 94.9337C51.2748 94.5646 51.168 92.5164 50.7576 91.2822C49.1298 86.0699 43.1283 83.2467 38.3696 82.8566C35.4442 82.553 32.4194 83.1835 29.8629 84.9404C27.8 86.2789 24.824 89.0653 25.0492 91.8922C25.0793 92.3354 25.4873 92.5755 25.8651 92.3724C27.8561 91.4171 29.1308 89.0475 30.8737 87.8044C32.6747 86.4535 34.8117 85.726 36.8632 85.6571C41.1838 85.3638 47.169 87.4684 49.1583 91.759C49.3924 92.3222 50.1088 93.7365 49.1492 94.0226C48.3495 94.261 47.8232 93.2422 47.749 92.6313C47.7997 89.5413 52.1481 88.6971 54.2737 89.2391C56.3994 89.7811 58.2516 91.5803 59.5799 93.3548C61.1702 95.1417 62.7768 97.6471 62.9718 100.031C63.3658 100.546 64.3116 100.536 64.3973 99.8772Z" fill="#EF37FF"/>
<path d="M162.749 136.618C162.852 136.678 162.909 136.57 162.808 136.51C162.705 136.45 162.647 136.558 162.749 136.618Z" fill="#3F3937"/>
<path d="M164.651 135.327C168.239 132.901 173.778 131.34 177.061 134.973C178.257 136.245 179.34 138.725 178.094 140.544C177.296 141.777 176.331 140.074 176.111 139.236C175.64 137.115 177.586 134.998 178.862 133.622C180.633 131.828 183.06 130.562 185.489 130.29C187.554 129.946 189.782 130.548 191.631 131.353C193.685 132.278 195.071 133.945 196.676 135.456C197.331 135.984 198.306 135.423 198.085 134.584C197.571 132.296 195.34 130.7 193.388 129.834C191.335 128.909 189.005 128.247 186.736 128.472C182.255 128.813 177.2 132.219 175.304 136.492C174.524 138.443 174.913 143.21 177.894 142.412C179.275 142.091 179.839 140.295 180.01 138.978C180.165 136.942 179.113 134.904 177.814 133.573C173.92 129.579 168.148 131.571 164.212 134.643C163.937 134.907 164.273 135.53 164.651 135.327Z" fill="#EF37FF"/>
<path d="M79.4176 77.9447C79.1485 74.9501 78.1817 72.2538 76.6191 69.9161C75.7868 68.7172 74.8966 67.626 73.8906 66.7503C72.9864 65.9345 71.5145 64.9264 70.3068 64.9247C70.0448 64.9123 69.8711 65.2354 69.9592 65.5709C70.4855 66.5897 71.6514 67.4178 72.4535 68.1735C73.4017 69.157 74.1459 70.0204 74.8761 71.1592C76.2926 73.2692 77.3753 75.75 77.7742 78.2537C77.9366 79.2002 79.5221 78.9988 79.4176 77.9447Z" fill="#FF8F6B"/>
<path d="M52.1793 71.4138C53.213 71.7387 54.2908 72.2313 55.2088 72.7715C55.7187 73.0716 56.2287 73.3718 56.7386 73.6719C57.0445 73.852 57.3505 74.0321 57.6124 74.0444C57.8743 74.0568 58.0783 74.1768 58.3402 74.1892C58.6021 74.2016 58.7759 73.8785 58.6299 73.6508C58.4837 73.423 58.3377 73.1953 58.2937 73.0276C58.1476 72.7999 57.7397 72.5597 57.5936 72.332C57.0836 72.0319 56.5737 71.7317 55.9038 71.4793C54.826 70.9867 53.6903 70.6018 52.4966 70.3246C51.8268 70.0721 51.5094 71.1613 52.1793 71.4138Z" fill="#FF8F6B"/>
<path d="M146.079 162.117C149.92 161.966 153.79 162.259 157.576 163.211C159.337 163.681 161.201 164.21 162.948 164.955C163.924 165.388 164.799 165.761 165.775 166.193C166.489 166.613 167.203 167.033 167.988 167.071C168.25 167.083 168.424 166.76 168.278 166.532C167.737 165.789 166.966 165.476 166.15 164.996C165.232 164.456 164.358 164.083 163.44 163.543C161.648 162.63 159.74 161.933 157.775 161.343C153.844 160.164 149.915 159.978 145.784 160.667C145.144 160.858 145.292 162.08 146.079 162.117Z" fill="#FF8F6B"/>
<path d="M143.191 153.753C147.087 152.501 151.234 152.531 155.279 152.5C157.273 152.539 159.426 152.53 161.463 152.737C162.613 152.846 163.661 152.896 164.709 152.945C165.757 152.994 166.79 153.319 167.896 153.261C168.158 153.273 168.332 152.95 168.084 152.662C167.383 151.967 166.292 151.75 165.418 151.377C164.34 150.884 163.248 150.667 162.099 150.558C159.799 150.339 157.442 150.228 155.129 150.284C150.72 150.242 146.661 150.548 142.577 152.398C141.879 152.697 142.449 153.883 143.191 153.753Z" fill="#FF8F6B"/>
<path d="M154.495 93.0458C154.567 92.6626 154.741 92.3395 154.87 91.8486C154.986 91.6332 154.942 91.4654 155.001 91.3577C155.058 91.25 155.116 91.1423 155.072 90.9745C155.13 90.8668 155.028 90.8068 155.086 90.699C155.042 90.5313 154.998 90.3635 154.895 90.3034C154.794 90.2434 154.634 90.291 154.473 90.3387C154.416 90.4464 154.314 90.3863 154.256 90.494C154.198 90.6017 154.139 90.7094 154.082 90.8171C153.966 91.0325 153.85 91.248 153.836 91.5234C153.663 91.8466 153.591 92.2298 153.519 92.6129L153.577 92.5052L153.519 92.6129C153.461 92.7207 153.448 92.9961 153.492 93.1639C153.536 93.3317 153.682 93.5595 153.842 93.5119C153.943 93.5719 154.205 93.5844 154.264 93.4767C154.264 93.4767 154.38 93.2612 154.495 93.0458Z" fill="#030229"/>
<path d="M150.231 110.957C151.84 108.217 153.988 106.219 156.297 104.175C157.502 103.182 158.649 102.298 159.899 101.473C161.148 100.648 162.281 100.039 163.282 98.9268C163.399 98.7113 163.368 98.2682 163.049 98.3635C162.307 98.4942 161.827 98.6372 161.129 98.9357C160.533 99.2941 159.88 99.7603 159.284 100.119C157.977 101.051 156.67 101.983 155.406 103.084C153.098 105.128 151.024 107.736 149.415 110.477C149.228 111.075 149.942 111.496 150.231 110.957Z" fill="#FF8F6B"/>
<path d="M168.736 98.0243C168.954 97.869 169.114 97.8213 169.332 97.6659C169.332 97.6659 169.274 97.7736 169.173 97.7136C169.173 97.7136 169.23 97.6059 169.332 97.6659L169.492 97.6182C169.652 97.5705 169.652 97.5705 169.812 97.5228C170.19 97.3198 170.612 97.2844 170.99 97.0814C171.368 96.8783 171.789 96.843 172.167 96.6399C172.385 96.4845 172.647 96.4969 172.864 96.3415C172.923 96.2338 173.024 96.2938 173.082 96.1861C173.242 96.1384 173.301 96.0307 173.358 95.923C173.576 95.7676 173.546 95.3244 173.24 95.1443C173.138 95.0843 173.036 95.0243 172.832 94.9042C172.73 94.8442 172.672 94.9519 172.571 94.8918C172.571 94.8918 172.57 94.8918 172.468 94.8318C172.57 94.8918 172.57 94.8918 172.468 94.8318C172.264 94.7118 171.944 94.8071 171.683 94.7948C171.158 94.7701 170.679 94.9131 170.198 95.0561C169.719 95.1992 169.24 95.3422 168.803 95.653C168.425 95.8561 167.888 96.1068 167.612 96.3699C167.234 96.573 167.047 97.1716 167.338 97.6271C167.892 98.095 168.358 98.2274 168.736 98.0243Z" fill="#FF8F6B"/>
<path d="M154.333 116.065C155.102 115.383 155.915 114.87 156.685 114.188C157.454 113.506 158.166 112.933 159.038 112.311C159.851 111.797 160.62 111.116 161.434 110.602C162.248 110.088 163.265 109.694 163.83 108.892C164.005 108.569 163.757 108.281 163.552 108.161C162.62 107.897 161.691 108.626 160.834 108.972C159.815 109.366 158.945 109.987 158.073 110.609C157.201 111.23 156.432 111.912 155.604 112.701C155.27 113.072 154.835 113.383 154.545 113.921C154.212 114.292 153.922 114.831 153.691 115.262C153.298 115.74 153.896 116.376 154.333 116.065Z" fill="#FF8F6B"/>
<path d="M166.36 107.686C166.853 107.268 167.391 107.017 167.929 106.766C168.685 106.36 169.294 105.726 169.992 105.428C170.689 105.129 171.315 105.214 172.057 105.083C172.798 104.953 173.54 104.822 174.34 104.584C177.32 103.785 180.492 103.383 183.591 103.363C184.376 103.4 185.162 103.437 185.949 103.474C186.472 103.499 187.316 103.428 187.3 102.71C187.369 101.333 184.575 101.532 183.79 101.495C180.691 101.515 177.653 102.421 174.525 102.991C173.682 103.062 172.882 103.3 172.083 103.538C171.283 103.777 170.469 104.291 169.669 104.529C168.869 104.767 168.084 104.73 167.284 104.969C166.645 105.16 165.991 105.626 165.439 106.152C164.567 106.773 165.328 108.356 166.36 107.686Z" fill="#FF8F6B"/>
<path opacity="0.5" d="M114.943 84.9404C115.815 84.3188 116.496 83.3017 116.915 82.2723C117.495 81.1952 117.972 80.0581 118.289 78.9686C118.405 78.7532 117.997 78.5131 117.882 78.7285C117.258 79.6379 116.736 80.6073 116.157 81.6844C115.693 82.546 115.172 83.5154 114.461 84.0893C113.967 84.5078 114.449 85.3589 114.943 84.9404Z" fill="#EF37FF"/>
<g opacity="0.5">
<path d="M122.679 71.0581C123.2 70.0888 123.824 69.1794 124.186 68.2577C124.605 67.2283 124.763 66.1865 124.716 65.0247C124.729 64.7492 124.264 64.6168 124.191 65C123.673 66.9634 122.688 68.7945 121.703 70.6256C121.311 71.1041 122.331 71.7044 122.679 71.0581Z" fill="#EF37FF"/>
</g>
<path opacity="0.5" d="M123.173 59.1537C123.432 58.172 123.589 57.1302 123.587 56.1361C123.557 55.6929 123.687 55.2021 123.656 54.7589C123.627 54.3157 123.77 53.5494 123.363 53.3092C123.158 53.1892 122.954 53.0691 122.737 53.2245C122.3 53.5353 122.375 54.1462 122.347 54.6971C122.377 55.1403 122.349 55.6912 122.278 56.0744C122.28 57.0685 122.181 58.0025 121.979 58.8766C121.835 59.6429 123.03 59.9201 123.173 59.1537Z" fill="#EF37FF"/>
<path opacity="0.5" d="M128.676 60.4071C129.343 59.6655 129.967 58.7562 130.59 57.8468C130.822 57.416 131.111 56.8774 131.344 56.4466C131.576 56.0157 131.864 55.4772 131.892 54.9263C131.965 54.5431 131.556 54.303 131.281 54.5661C130.845 54.8769 130.555 55.4154 130.324 55.8463C130.091 56.2771 129.86 56.7079 129.628 57.1388C129.165 58.0005 128.6 58.8021 128.034 59.6038C127.918 59.8192 127.846 60.2023 128.05 60.3224C128.138 60.6579 128.502 60.7303 128.676 60.4071Z" fill="#EF37FF"/>
<path opacity="0.5" d="M130.872 65.812C131.656 64.855 132.585 64.1257 133.558 63.5642C134.532 63.0027 135.652 62.6689 136.727 62.1674C136.944 62.012 137.016 61.6289 136.755 61.6165C135.458 61.2793 134.122 61.7684 133.09 62.4377C131.956 63.0469 131.013 64.0516 130.23 65.0086C129.678 65.5348 130.422 66.3983 130.872 65.812Z" fill="#EF37FF"/>
<path d="M174.708 148.336C174.868 148.289 174.926 148.181 175.086 148.133C175.304 147.978 175.522 147.822 175.637 147.607C175.753 147.392 175.811 147.284 176.03 147.128L176.087 147.021C176.145 146.913 176.203 146.805 176.261 146.698C176.377 146.482 176.493 146.267 176.507 145.991C176.623 145.776 176.579 145.608 176.535 145.44C176.563 144.889 176.328 144.326 175.876 143.918C176.022 144.146 176.168 144.374 176.256 144.709C176.168 144.374 176.022 144.146 175.818 144.026C175.672 143.798 175.468 143.678 175.308 143.726C175.104 143.606 174.945 143.654 174.682 143.641C174.42 143.629 174.101 143.724 173.882 143.88C174.304 143.844 174.624 143.749 175.046 143.714C174.945 143.654 174.784 143.701 174.682 143.641C174.42 143.629 174.158 143.616 173.998 143.664C173.838 143.712 173.679 143.76 173.519 143.807C173.46 143.915 173.359 143.855 173.301 143.963C173.243 144.07 173.082 144.118 173.025 144.226C173.185 144.178 173.301 143.963 173.46 143.915C173.403 144.023 173.301 143.963 173.243 144.07C173.185 144.178 173.082 144.118 173.025 144.226C172.865 144.273 172.749 144.489 172.589 144.536C172.372 144.692 172.153 144.847 171.979 145.17C171.762 145.326 171.69 145.709 171.574 145.924C171.56 146.2 171.547 146.475 171.532 146.751C171.519 147.026 171.607 147.362 171.752 147.589C171.796 147.757 172.001 147.877 172.045 148.045C172.293 148.333 172.701 148.573 173.065 148.645C173.225 148.598 173.429 148.718 173.589 148.67C174.112 148.695 174.49 148.492 174.708 148.336Z" fill="#FF8F6B"/>
<path d="M191.14 108.799C191.199 108.692 191.096 108.632 191.155 108.524C191.11 108.356 191.066 108.188 191.124 108.081C191.124 108.081 191.08 107.913 190.978 107.853C190.832 107.625 190.89 107.518 190.642 107.23C190.54 107.17 190.394 106.942 190.292 106.882C190.19 106.822 189.985 106.702 189.985 106.702L189.622 106.63C189.36 106.617 189.2 106.665 188.983 106.82C188.823 106.868 188.823 106.868 188.765 106.976C188.706 107.083 188.605 107.023 188.546 107.131C188.329 107.286 188.054 107.549 187.879 107.872C187.705 108.195 187.692 108.471 187.62 108.854C187.636 109.572 187.972 110.196 188.482 110.496C188.992 110.796 189.778 110.833 190.272 110.415C190.49 110.259 190.765 109.996 190.939 109.673C191.055 109.458 191.069 109.182 191.14 108.799Z" fill="#FF8F6B"/>
<path d="M109.017 77.4822C109.765 74.0938 111.854 71.2104 113.928 68.6023C114.044 68.3869 113.898 68.1591 113.68 68.3145C111.095 70.6224 108.994 73.7813 108.188 77.2775C107.898 77.816 108.83 78.0808 109.017 77.4822Z" fill="#030229"/>
</svg>
