<?xml version="1.0" encoding="utf-8"?>
<!-- Generator: Adobe Illustrator 26.1.0, SVG Export Plug-In . SVG Version: 6.00 Build 0)  -->
<svg version="1.1" id="Layer_1" xmlns="http://www.w3.org/2000/svg" xmlns:xlink="http://www.w3.org/1999/xlink" x="0px" y="0px"
	 viewBox="0 0 24 25" style="enable-background:new 0 0 24 25;" xml:space="preserve">
<style type="text/css">
	.st0{fill:#FFFFFF;}
</style>
<g>
	<path class="st0" d="M23.4,12.3c-0.1-0.2-1.4-2.7-3.7-4.8c-0.1-0.1-0.1-0.1-0.2-0.2c0,0-0.1-0.1-0.2-0.1c-1.3-1.2-3-2.3-4.9-2.8
		c-0.3-0.1-0.5-0.1-0.8-0.2c-0.1,0-0.3-0.1-0.4-0.1C12.9,4,12.4,4,12,4c-0.1,0-0.3,0-0.4,0C11,4,10.4,4.1,9.8,4.3c0,0-0.1,0-0.1,0
		c-1.4,0.3-2.8,1-3.9,1.9c0,0,0,0,0,0C4.7,7,3.7,7.9,2.8,9c0,0,0,0,0,0c-0.8,1-1.6,2.1-2.2,3.3c0,0.1-0.1,0.2-0.1,0.2
		c0,0.1,0,0.2,0.1,0.2c0.1,0.2,1.4,2.7,3.7,4.8c0.1,0.1,0.1,0.1,0.2,0.2c0,0,0.1,0.1,0.2,0.1c1.3,1.2,3,2.3,4.9,2.8
		c0.3,0.1,0.5,0.1,0.8,0.2c0.1,0,0.3,0.1,0.4,0.1C11.1,21,11.6,21,12,21c0.1,0,0.3,0,0.4,0c0.6,0,1.2-0.1,1.8-0.2c0,0,0.1,0,0.1,0
		c1.4-0.3,2.8-1,3.9-1.9c0,0,0,0,0,0c1.1-0.8,2.1-1.8,2.9-2.8c0,0,0,0,0,0c0.8-1,1.6-2.1,2.2-3.3c0-0.1,0.1-0.2,0.1-0.2
		C23.5,12.4,23.5,12.3,23.4,12.3z M17.6,18C17.6,18,17.6,18,17.6,18c-1.2,0.9-2.6,1.5-4.1,1.8c0,0-0.1,0-0.1,0
		c-0.2,0-0.4,0.1-0.7,0.1c-0.3,0-0.5,0-0.8,0c-5.9,0-9.7-6.2-10.4-7.5c0.3-0.5,0.6-1.1,1-1.6c0-0.1,0.1-0.1,0.1-0.2
		c1-1.4,2.3-2.7,3.7-3.8c0,0,0,0,0,0C7.6,6,9,5.4,10.4,5.2c0,0,0.1,0,0.1,0c0.2,0,0.4-0.1,0.7-0.1c0.3,0,0.5,0,0.8,0
		c5.9,0,9.7,6.2,10.4,7.5c-0.3,0.5-0.6,1.1-1,1.6c0,0.1-0.1,0.1-0.1,0.2C20.3,15.7,19.1,16.9,17.6,18z"/>
	<path class="st0" d="M14.5,9.9c-0.3-0.3-0.7-0.6-1.2-0.8C13,9,12.5,8.9,12.1,8.9c0,0,0,0-0.1,0c-0.5,0-0.9,0.1-1.4,0.3
		C10.2,9.4,9.9,9.7,9.5,10c0,0,0,0,0,0c0,0,0,0,0,0c0,0,0,0,0,0c0,0,0,0,0,0c-0.3,0.3-0.6,0.7-0.8,1.1c-0.2,0.4-0.3,0.9-0.3,1.4
		c0,0.5,0.1,0.9,0.3,1.4c0.2,0.4,0.4,0.8,0.8,1.2s0.7,0.6,1.2,0.8c0.4,0.2,0.9,0.3,1.3,0.3c0,0,0,0,0.1,0c0.5,0,0.9-0.1,1.4-0.3
		c0.4-0.2,0.8-0.5,1.1-0.8c0,0,0,0,0,0c0,0,0,0,0,0c0,0,0,0,0,0c0,0,0,0,0,0c0.3-0.3,0.6-0.7,0.8-1.1c0.2-0.4,0.3-0.9,0.3-1.4
		c0-0.5-0.1-0.9-0.3-1.4C15.1,10.7,14.9,10.3,14.5,9.9z M12.9,14.9c-0.3,0.1-0.6,0.2-1,0.2c-0.3,0-0.7-0.1-1-0.2
		c-0.3-0.1-0.6-0.3-0.8-0.5c-0.2-0.2-0.4-0.5-0.6-0.8s-0.2-0.6-0.2-1c0-0.3,0.1-0.7,0.2-1c0.1-0.3,0.3-0.6,0.6-0.8c0,0,0,0,0,0
		c0,0,0,0,0,0c0.2-0.2,0.5-0.4,0.8-0.6c0.3-0.1,0.6-0.2,1-0.2c0.3,0,0.7,0.1,1,0.2c0.3,0.1,0.6,0.3,0.8,0.5c0.2,0.2,0.4,0.5,0.6,0.8
		s0.2,0.6,0.2,1c0,0.3-0.1,0.7-0.2,1c-0.1,0.3-0.3,0.6-0.6,0.8c0,0,0,0,0,0c0,0,0,0,0,0C13.5,14.5,13.3,14.7,12.9,14.9z"/>
</g>
</svg>
