<svg width="24" height="17" viewBox="0 0 24 17" fill="none" xmlns="http://www.w3.org/2000/svg">
<path d="M17.94 14.44C16.2306 15.743 14.1491 16.4649 12 16.5C5 16.5 1 8.50002 1 8.50002C2.24389 6.18192 3.96914 4.15663 6.06 2.56003M9.9 0.740025C10.5883 0.578904 11.2931 0.498364 12 0.500025C19 0.500025 23 8.50002 23 8.50002C22.393 9.63563 21.6691 10.7048 20.84 11.69M14.12 10.62C13.8454 10.9148 13.5141 11.1512 13.1462 11.3151C12.7782 11.4791 12.3809 11.5673 11.9781 11.5744C11.5753 11.5815 11.1752 11.5074 10.8016 11.3565C10.4281 11.2056 10.0887 10.9811 9.80385 10.6962C9.51897 10.4113 9.29439 10.072 9.14351 9.69841C8.99262 9.32486 8.91853 8.92475 8.92563 8.52193C8.93274 8.11912 9.02091 7.72187 9.18488 7.35387C9.34884 6.98588 9.58525 6.65467 9.88 6.38003" stroke="white" stroke-linecap="round" stroke-linejoin="round"/>
</svg>
