<?xml version="1.0" encoding="utf-8"?>
<!-- Generator: Adobe Illustrator 26.1.0, SVG Export Plug-In . SVG Version: 6.00 Build 0)  -->
<svg version="1.1" id="Layer_1" xmlns="http://www.w3.org/2000/svg" xmlns:xlink="http://www.w3.org/1999/xlink" x="0px" y="0px"
	 viewBox="0 0 24 25" style="enable-background:new 0 0 24 25;" xml:space="preserve">
<style type="text/css">
	.st0{fill:#FFFFFF;}
</style>
<g>
	<path class="st0" d="M10,5.2C10.7,5.1,11.3,5,12,5c5.9,0,9.7,6.2,10.4,7.5c-0.6,1-1.2,2-2,2.9c-0.2,0.2-0.2,0.5,0.1,0.7
		c0.1,0.1,0.2,0.1,0.3,0.1c0.1,0,0.3-0.1,0.4-0.2c0.8-1,1.6-2.1,2.2-3.3c0.1-0.1,0.1-0.3,0-0.5C23.3,11.9,19.2,4,12,4
		c-0.8,0-1.5,0.1-2.2,0.3C9.5,4.3,9.4,4.6,9.4,4.9C9.5,5.1,9.7,5.3,10,5.2z"/>
	<path class="st0" d="M23.4,23.1l-22-22C1.2,1,0.8,1,0.6,1.1s-0.2,0.5,0,0.7l4.7,4.7c-2,1.6-3.6,3.5-4.8,5.7c-0.1,0.1-0.1,0.3,0,0.5
		C0.7,13.1,4.8,21,12,21c2.1,0,4.1-0.7,5.9-1.9l4.8,4.8C22.7,24,22.9,24,23,24s0.3,0,0.4-0.1C23.5,23.7,23.5,23.3,23.4,23.1z
		 M9.6,11.6c0.1-0.2,0.2-0.3,0.3-0.4l3.5,3.5c-0.1,0.1-0.3,0.2-0.4,0.3c-0.3,0.1-0.6,0.2-1,0.2c-0.3,0-0.7-0.1-1-0.2
		c-0.3-0.1-0.6-0.3-0.8-0.5c-0.2-0.2-0.4-0.5-0.6-0.8s-0.2-0.6-0.2-1C9.4,12.2,9.5,11.9,9.6,11.6z M12,20c-6,0-9.7-6.2-10.4-7.5
		c1.1-2,2.6-3.8,4.5-5.3l3.2,3.2c-0.2,0.2-0.3,0.5-0.5,0.7c-0.2,0.4-0.3,0.9-0.3,1.4c0,0.5,0.1,0.9,0.3,1.4c0.2,0.4,0.4,0.8,0.8,1.2
		s0.7,0.6,1.2,0.8c0.4,0.2,0.9,0.3,1.3,0.3c0,0,0,0,0.1,0c0.5,0,0.9-0.1,1.4-0.3c0.3-0.1,0.5-0.3,0.7-0.5l3.1,3.1
		C15.6,19.4,13.9,20,12,20z"/>
</g>
</svg>
