<svg aria-hidden="true" style="position: absolute; width: 0; height: 0; overflow: hidden;" version="1.1" xmlns="http://www.w3.org/2000/svg" xmlns:xlink="http://www.w3.org/1999/xlink">
<defs>
<symbol id="icon-eye-off" viewBox="0 0 31 32">
<path d="M12.8 6.656c0.896-0.128 1.664-0.256 2.56-0.256 7.552 0 12.416 7.936 13.312 9.6-0.768 1.28-1.536 2.56-2.56 3.712-0.256 0.256-0.256 0.64 0.128 0.896 0.128 0.128 0.256 0.128 0.384 0.128s0.384-0.128 0.512-0.256c1.024-1.28 2.048-2.688 2.816-4.224 0.128-0.128 0.128-0.384 0-0.64-0.128-0.384-5.376-10.496-14.592-10.496-1.024 0-1.92 0.128-2.816 0.384-0.384 0-0.512 0.384-0.512 0.768 0.128 0.256 0.384 0.512 0.768 0.384z"></path>
<path d="M29.952 29.568l-28.16-28.16c-0.256-0.128-0.768-0.128-1.024 0s-0.256 0.64 0 0.896l6.016 6.016c-2.56 2.048-4.608 4.48-6.144 7.296-0.128 0.128-0.128 0.384 0 0.64 0.256 0.512 5.504 10.624 14.72 10.624 2.688 0 5.248-0.896 7.552-2.432l6.144 6.144c0 0.128 0.256 0.128 0.384 0.128s0.384 0 0.512-0.128c0.128-0.256 0.128-0.768 0-1.024zM12.288 14.848c0.128-0.256 0.256-0.384 0.384-0.512l4.48 4.48c-0.128 0.128-0.384 0.256-0.512 0.384-0.384 0.128-0.768 0.256-1.28 0.256-0.384 0-0.896-0.128-1.28-0.256s-0.768-0.384-1.024-0.64c-0.256-0.256-0.512-0.64-0.768-1.024s-0.256-0.768-0.256-1.28c0-0.64 0.128-1.024 0.256-1.408zM15.36 25.6c-7.68 0-12.416-7.936-13.312-9.6 1.408-2.56 3.328-4.864 5.76-6.784l4.096 4.096c-0.256 0.256-0.384 0.64-0.64 0.896-0.256 0.512-0.384 1.152-0.384 1.792s0.128 1.152 0.384 1.792c0.256 0.512 0.512 1.024 1.024 1.536s0.896 0.768 1.536 1.024c0.512 0.256 1.152 0.384 1.664 0.384 0 0 0 0 0.128 0 0.64 0 1.152-0.128 1.792-0.384 0.384-0.128 0.64-0.384 0.896-0.64l3.968 3.968c-2.304 1.152-4.48 1.92-6.912 1.92z"></path>
</symbol>
<symbol id="icon-eye-on" viewBox="0 0 31 32">
<path d="M29.952 15.744c-0.128-0.256-1.792-3.456-4.736-6.144-0.128-0.128-0.128-0.128-0.256-0.256 0 0-0.128-0.128-0.256-0.128-1.664-1.536-3.84-2.944-6.272-3.584-0.384-0.128-0.64-0.128-1.024-0.256-0.128 0-0.384-0.128-0.512-0.128-0.384-0.128-1.024-0.128-1.536-0.128-0.128 0-0.384 0-0.512 0-0.768 0-1.536 0.128-2.304 0.384 0 0-0.128 0-0.128 0-1.792 0.384-3.584 1.28-4.992 2.432 0 0 0 0 0 0-1.408 1.024-2.688 2.176-3.84 3.584 0 0 0 0 0 0-1.024 1.28-2.048 2.688-2.816 4.224 0 0.128-0.128 0.256-0.128 0.256 0 0.128 0 0.256 0.128 0.256 0.128 0.256 1.792 3.456 4.736 6.144 0.128 0.128 0.128 0.128 0.256 0.256 0 0 0.128 0.128 0.256 0.128 1.664 1.536 3.84 2.944 6.272 3.584 0.384 0.128 0.64 0.128 1.024 0.256 0.128 0 0.384 0.128 0.512 0.128 0.384 0.128 1.024 0.128 1.536 0.128 0.128 0 0.384 0 0.512 0 0.768 0 1.536-0.128 2.304-0.256 0 0 0.128 0 0.128 0 1.792-0.384 3.584-1.28 4.992-2.432 0 0 0 0 0 0 1.408-1.024 2.688-2.304 3.712-3.584 0 0 0 0 0 0 1.024-1.28 2.048-2.688 2.816-4.224 0-0.128 0.128-0.256 0.128-0.256 0.128-0.256 0.128-0.384 0-0.384zM22.528 23.040c0 0 0 0 0 0-1.536 1.152-3.328 1.92-5.248 2.304 0 0-0.128 0-0.128 0-0.256 0-0.512 0.128-0.896 0.128s-0.64 0-1.024 0c-7.552 0-12.416-7.936-13.312-9.6 0.384-0.64 0.768-1.408 1.28-2.048 0-0.128 0.128-0.128 0.128-0.256 1.28-1.792 2.944-3.456 4.736-4.864 0 0 0 0 0 0 1.664-1.024 3.456-1.792 5.248-2.048 0 0 0.128 0 0.128 0 0.256 0 0.512-0.128 0.896-0.128s0.64 0 1.024 0c7.552 0 12.416 7.936 13.312 9.6-0.384 0.64-0.768 1.408-1.28 2.048 0 0.128-0.128 0.128-0.128 0.256-1.28 1.664-2.816 3.2-4.736 4.608z"></path>
<path d="M18.56 12.672c-0.384-0.384-0.896-0.768-1.536-1.024-0.384-0.128-1.024-0.256-1.536-0.256 0 0 0 0-0.128 0-0.64 0-1.152 0.128-1.792 0.384-0.512 0.256-0.896 0.64-1.408 1.024 0 0 0 0 0 0s0 0 0 0 0 0 0 0 0 0 0 0c-0.384 0.384-0.768 0.896-1.024 1.408s-0.384 1.152-0.384 1.792c0 0.64 0.128 1.152 0.384 1.792 0.256 0.512 0.512 1.024 1.024 1.536s0.896 0.768 1.536 1.024c0.512 0.256 1.152 0.384 1.664 0.384 0 0 0 0 0.128 0 0.64 0 1.152-0.128 1.792-0.384 0.512-0.256 1.024-0.64 1.408-1.024 0 0 0 0 0 0s0 0 0 0 0 0 0 0 0 0 0 0c0.384-0.384 0.768-0.896 1.024-1.408s0.384-1.152 0.384-1.792c0-0.64-0.128-1.152-0.384-1.792-0.384-0.64-0.64-1.152-1.152-1.664zM16.512 19.072c-0.384 0.128-0.768 0.256-1.28 0.256-0.384 0-0.896-0.128-1.28-0.256s-0.768-0.384-1.024-0.64c-0.256-0.256-0.512-0.64-0.768-1.024s-0.256-0.768-0.256-1.28c0-0.384 0.128-0.896 0.256-1.28s0.384-0.768 0.768-1.024c0 0 0 0 0 0s0 0 0 0c0.256-0.256 0.64-0.512 1.024-0.768 0.384-0.128 0.768-0.256 1.28-0.256 0.384 0 0.896 0.128 1.28 0.256s0.768 0.384 1.024 0.64c0.256 0.256 0.512 0.64 0.768 1.024s0.256 0.768 0.256 1.28c0 0.384-0.128 0.896-0.256 1.28s-0.384 0.768-0.768 1.024c0 0 0 0 0 0s0 0 0 0c-0.256 0.256-0.512 0.512-1.024 0.768z"></path>
</symbol>
</defs>
</svg>
