<?xml version="1.0" encoding="iso-8859-1"?>
<!-- Generator: Adobe Illustrator 19.0.0, SVG Export Plug-In . SVG Version: 6.00 Build 0)  -->
<svg version="1.1" id="Layer_1" xmlns="http://www.w3.org/2000/svg" xmlns:xlink="http://www.w3.org/1999/xlink" x="0px" y="0px"
	 viewBox="0 0 512 512" style="enable-background:new 0 0 512 512;" xml:space="preserve">
<g>
	<g>
		<path d="M507.418,241.382C503.467,235.708,409.003,102.4,256,102.4S8.533,235.708,4.582,241.382c-6.11,8.789-6.11,20.446,0,29.235
			C8.533,276.292,102.997,409.6,256,409.6s247.467-133.308,251.418-138.982C513.528,261.828,513.528,250.172,507.418,241.382z
			 M256,384C114.62,384,25.6,256,25.6,256S114.62,128,256,128s230.4,128,230.4,128S397.38,384,256,384z"/>
	</g>
</g>
<g>
	<g>
		<path d="M256,153.6c-56.55,0-102.4,45.841-102.4,102.4S199.441,358.4,256,358.4c56.559,0,102.4-45.841,102.4-102.4
			S312.55,153.6,256,153.6z M256,332.8c-42.351,0-76.8-34.449-76.8-76.8s34.449-76.8,76.8-76.8c42.351,0,76.8,34.449,76.8,76.8
			C332.8,298.351,298.351,332.8,256,332.8z"/>
	</g>
</g>
<g>
</g>
<g>
</g>
<g>
</g>
<g>
</g>
<g>
</g>
<g>
</g>
<g>
</g>
<g>
</g>
<g>
</g>
<g>
</g>
<g>
</g>
<g>
</g>
<g>
</g>
<g>
</g>
<g>
</g>
</svg>
