<svg aria-hidden="true" style="position: absolute; width: 0; height: 0; overflow: hidden;" version="1.1" xmlns="http://www.w3.org/2000/svg" xmlns:xlink="http://www.w3.org/1999/xlink">
<defs>
<symbol id="icon-eye-on" viewBox="0 0 16 16">
<path d="M0.178 8.489c1.044 1.309 4.151 4.799 7.826 4.799s6.782-3.49 7.826-4.799c0.225-0.291 0.225-0.701 0-0.978-1.044-1.309-4.151-4.799-7.826-4.799-3.675-0.013-6.782 3.477-7.826 4.786-0.238 0.291-0.238 0.701 0 0.991zM8.005 4.814c1.758 0 3.173 1.415 3.173 3.173s-1.415 3.173-3.173 3.173c-1.758 0-3.173-1.415-3.173-3.173s1.415-3.173 3.173-3.173z"></path>
<path d="M9.591 7.987c0 0.876-0.71 1.586-1.586 1.586s-1.586-0.71-1.586-1.586c0-0.876 0.71-1.586 1.586-1.586s1.586 0.71 1.586 1.586z"></path>
</symbol>
<symbol id="icon-eye-off" viewBox="0 0 16 16">
<path d="M2 2.688l0.687-0.687 11.313 11.313-0.687 0.687-11.313-11.313z"></path>
<path d="M8.104 6.003l1.893 1.893c-0.056-1.022-0.871-1.837-1.888-1.893l-0.005-0z"></path>
<path d="M7.896 9.997l-1.893-1.893c0.056 1.022 0.871 1.837 1.888 1.893l0.005 0z"></path>
<path d="M8 11c-0 0-0 0-0 0-1.657 0-3-1.343-3-3 0-0.282 0.039-0.554 0.111-0.813l-0.005 0.021-2.158-2.159c-0.882 0.808-1.722 1.861-2.448 2.951 0.826 1.375 1.955 2.789 3.131 3.599 1.349 0.929 2.817 1.401 4.361 1.401 0.002 0 0.003 0 0.005 0 0.886 0 1.736-0.158 2.522-0.448l-0.051 0.016-1.675-1.675c-0.237 0.067-0.509 0.106-0.791 0.106-0.001 0-0.002 0-0.003 0h0z"></path>
<path d="M8 5c0 0 0 0 0 0 1.657 0 3 1.343 3 3 0 0.282-0.039 0.554-0.111 0.813l0.005-0.021 2.208 2.208c0.911-0.82 1.752-1.924 2.398-3-0.824-1.357-1.966-2.768-3.162-3.588-1.366-0.937-2.828-1.412-4.346-1.412-0.878 0.001-1.718 0.165-2.492 0.463l0.048-0.016 1.66 1.66c0.237-0.067 0.509-0.106 0.791-0.106 0 0 0.001 0 0.001 0h-0z"></path>
</symbol>
</defs>
</svg>
