<svg width="237" height="188" viewBox="0 0 237 188" fill="none" xmlns="http://www.w3.org/2000/svg">
    <path opacity="0.1" d="M162.019 75.4804C161.394 74.8447 160.648 74.4245 159.795 73.9443C159.582 73.8242 159.368 73.7041 159.155 73.5841C160.766 73.215 162.377 72.8459 163.789 72.0813C164.184 71.8782 163.939 71.315 163.605 71.4103C161.781 71.6594 160.003 72.0761 158.225 72.4929C159.012 71.0927 159.799 69.6924 160.586 68.2922C160.95 67.6459 159.99 67.1057 159.627 67.7519C158.84 69.1522 157.992 70.6601 157.205 72.0603C156.791 70.5507 156.316 69.1487 155.841 67.7468C155.596 67.1835 154.76 67.4219 155.005 67.9852C155.267 69.267 155.528 70.5489 155.897 71.8909C154.831 71.2906 153.765 70.6903 152.638 70.1977C152.212 69.9575 151.849 70.6038 152.275 70.8439C153.494 71.672 154.666 72.3323 155.839 72.9927C154.395 73.3141 152.891 73.7432 151.493 74.2323C150.825 74.4231 151.161 75.3218 151.769 75.2388C153.213 74.9174 154.596 74.7037 155.933 74.3222C155.267 75.5071 154.541 76.7996 154.088 78.1045C153.967 78.3199 154.393 78.56 154.621 78.4046C155.44 77.4476 156.106 76.2628 156.772 75.0779C156.97 75.4735 157.002 75.9166 157.201 76.3122C157.537 77.2109 157.874 78.1096 158.272 78.9007C158.364 79.2361 158.865 79.0931 158.773 78.7576C158.603 77.8112 158.54 76.9248 158.371 75.9784C158.293 75.3675 158.048 74.8042 157.91 74.301C158.443 74.6011 158.869 74.8413 159.402 75.1414C160.255 75.6217 160.895 75.9819 161.869 76.2467C162.036 76.199 162.278 75.7682 162.019 75.4804Z" fill="#030229"/>
    <path opacity="0.1" d="M21.3191 66.1711C20.694 65.5355 19.9479 65.1153 19.0951 64.635C18.8819 64.515 18.6687 64.3949 18.4555 64.2749C20.0664 63.9058 21.6773 63.5367 23.0895 62.7721C23.4844 62.569 23.2396 62.0058 22.9053 62.1011C21.0352 62.1824 19.1967 62.7069 17.4186 63.1236C18.2058 61.7234 18.9929 60.3232 19.7801 58.9229C20.1434 58.2767 19.184 57.7364 18.8207 58.3827C18.0336 59.7829 17.1859 61.2908 16.3987 62.6911C15.9843 61.1814 15.5094 59.7794 15.0344 58.3775C14.7897 57.8142 13.954 58.0526 14.1987 58.6159C14.4605 59.8978 14.7222 61.1797 15.0906 62.5216C14.0247 61.9213 12.9587 61.321 11.8322 60.8284C11.4059 60.5883 11.0426 61.2345 11.4689 61.4747C12.6875 62.3027 13.86 62.9631 15.0326 63.6234C13.5888 63.9448 12.0845 64.3739 10.6868 64.8631C10.0183 65.0538 10.3551 65.9525 10.9631 65.8695C12.4068 65.5481 13.79 65.3344 15.1272 64.953C14.4611 66.1378 13.7345 67.4303 13.2817 68.7352C13.1606 68.9506 13.587 69.1907 13.8147 69.0353C14.6333 68.0783 15.2994 66.8935 15.9654 65.7087C16.1641 66.1042 16.1957 66.5474 16.3943 66.9429C16.7311 67.8416 17.068 68.7404 17.4653 69.5314C17.5574 69.8669 18.0588 69.7238 17.9668 69.3884C17.7971 68.4419 17.734 67.5556 17.5643 66.6091C17.4868 65.9982 17.242 65.435 17.1039 64.9317C17.6369 65.2319 18.0632 65.472 18.5962 65.7722C19.449 66.2524 20.0885 66.6126 21.0624 66.8774C21.2295 66.8297 21.4717 66.3989 21.3191 66.1711Z" fill="#030229"/>
    <path d="M59.574 41.06C58.7648 39.7534 58.0621 38.5068 57.8149 36.9495C57.5216 35.2244 57.8823 33.584 58.0299 31.8236C58.0299 31.8236 58.0905 31.7159 57.9839 31.6559L57.8773 31.5958C57.8773 31.5958 57.8773 31.5958 57.7101 31.6435C57.7101 31.6435 57.7101 31.6435 57.6496 31.7512C55.695 34.4793 52.839 35.5653 49.6778 36.1958C49.5107 36.2435 49.3896 36.4589 49.4356 36.6266C51.1752 39.0244 51.1392 42.833 50.5533 45.6229C50.5388 45.8983 50.8586 46.0784 51.0863 45.923C52.2998 44.7629 53.3462 43.6505 54.8189 42.7782C56.2917 41.9059 57.796 41.4768 59.3923 41.3831C59.5595 41.3354 59.6806 41.12 59.574 41.06Z" fill="#605BFF"/>
    <path d="M202.895 166.713C202.086 165.406 201.383 164.16 201.243 162.662C200.949 160.937 201.31 159.297 201.458 157.537C201.458 157.537 201.518 157.429 201.412 157.369L201.305 157.309C201.305 157.309 201.305 157.309 201.138 157.357C201.138 157.357 201.138 157.357 201.077 157.464C199.123 160.192 196.267 161.278 193.106 161.909C192.938 161.956 192.817 162.172 192.863 162.34C194.603 164.737 194.567 168.546 193.981 171.336C193.967 171.611 194.286 171.791 194.514 171.636C195.728 170.476 196.774 169.364 198.247 168.491C199.72 167.619 201.224 167.19 202.82 167.096C202.82 167.096 202.941 166.881 202.895 166.713Z" fill="#605BFF"/>
    <path d="M140.461 95.5323C139.851 94.6212 139.453 93.8302 139.238 92.716C139.082 91.4941 139.308 90.3446 139.32 89.0751C139.32 89.0751 139.32 89.0751 139.213 89.0151L139.106 88.955C139.106 88.955 139.106 88.955 139.046 89.0628C137.682 90.9892 135.723 91.7291 133.504 92.1812C133.337 92.2288 133.276 92.3366 133.383 92.3966C134.664 94.111 134.58 96.7578 134.204 98.6737C134.083 98.8891 134.403 99.0692 134.524 98.8537C135.282 98.0044 136.147 97.2151 137.164 96.6536C138.182 96.0921 139.185 95.806 140.34 95.7477C140.447 95.8077 140.568 95.5923 140.461 95.5323Z" fill="#605BFF"/>
    <path d="M102.44 99.0062C101.371 97.4118 100.623 95.9975 100.39 94.1647C100.065 91.9964 100.44 90.0806 100.663 87.937C100.663 87.937 100.723 87.8293 100.617 87.7693L100.51 87.7092C100.51 87.7092 100.404 87.6492 100.343 87.7569L100.283 87.8646C97.9186 91.0712 94.4401 92.5157 90.6709 93.2292C90.5037 93.2768 90.3221 93.6 90.5353 93.72C92.6867 96.6334 92.6678 101.161 91.8857 104.549C91.8106 104.932 92.237 105.172 92.5253 104.909C93.8599 103.534 95.3011 102.218 97.0015 101.191C98.702 100.163 100.541 99.6384 102.517 99.6171C102.304 99.497 102.592 99.2339 102.44 99.0062Z" fill="#605BFF"/>
    <path d="M92.588 57.3679C92.3067 54.3733 91.9648 51.4863 91.0149 48.6824C90.4334 47.2204 89.8518 45.7584 89.0426 44.4518C88.5847 43.7685 88.0662 43.1929 87.6083 42.5096C87.3491 42.2218 87.0898 41.934 86.8912 41.5385C86.6319 41.2507 86.5398 40.9152 86.1595 40.8428C85.9463 40.7228 85.7792 40.7704 85.7647 41.0459C85.5685 41.6445 86.0264 42.3278 86.2712 42.891C86.5619 43.622 86.9132 44.2453 87.204 44.9763C87.8461 46.3306 88.4275 47.7926 88.9025 49.1945C89.7458 51.9384 90.2088 54.6099 90.4441 57.4368C90.5387 58.7664 92.622 58.8052 92.588 57.3679Z" fill="#FF8F6B"/>
    <path d="M67.0677 99.8772C67.3654 97.3504 65.9457 95.1328 64.4048 93.1305C62.8639 91.1282 60.9427 89.0536 58.6291 88.1761C56.4828 87.2509 53.5177 87.2828 51.6817 88.8014C50.3615 89.9015 48.6781 91.6478 49.3518 93.4453C49.628 94.4517 50.74 95.2198 51.7429 94.9337C53.3537 94.5646 53.2421 92.5164 52.8132 91.2822C51.1121 86.0699 44.8401 83.2467 39.8668 82.8566C36.8096 82.553 33.6484 83.1835 30.9767 84.9404C28.8208 86.2789 25.7107 89.0653 25.946 91.8922C25.9775 92.3354 26.4039 92.5755 26.7987 92.3724C28.8795 91.4171 30.2116 89.0475 32.0331 87.8044C33.9152 86.4535 36.1486 85.726 38.2925 85.6571C42.8079 85.3638 49.0629 87.4684 51.1418 91.759C51.3865 92.3222 52.1352 93.7365 51.1323 94.0226C50.2966 94.261 49.7466 93.2422 49.669 92.6313C49.722 89.5413 54.2664 88.6971 56.4878 89.2391C58.7093 89.7811 60.645 91.5803 62.0332 93.3548C63.6952 95.1417 65.3742 97.6471 65.578 100.031C65.9898 100.546 66.9782 100.536 67.0677 99.8772Z" fill="#EF37FF"/>
    <path d="M169.853 136.618C169.96 136.678 170.02 136.57 169.914 136.51C169.807 136.45 169.746 136.558 169.853 136.618Z" fill="#3F3937"/>
    <path d="M171.84 135.327C175.59 132.901 181.379 131.34 184.81 134.973C186.06 136.245 187.192 138.725 185.889 140.544C185.055 141.777 184.047 140.074 183.817 139.236C183.325 137.115 185.358 134.998 186.692 133.622C188.543 131.828 191.079 130.562 193.618 130.29C195.776 129.946 198.104 130.548 200.037 131.353C202.183 132.278 203.632 133.945 205.309 135.456C205.994 135.984 207.012 135.423 206.782 134.584C206.244 132.296 203.913 130.7 201.873 129.834C199.727 128.909 197.292 128.247 194.921 128.472C190.238 128.813 184.955 132.219 182.974 136.492C182.158 138.443 182.565 143.21 185.68 142.412C187.124 142.091 187.713 140.295 187.892 138.978C188.054 136.942 186.954 134.904 185.597 133.573C181.527 129.579 175.495 131.571 171.382 134.643C171.094 134.907 171.445 135.53 171.84 135.327Z" fill="#EF37FF"/>
    <path d="M82.7652 77.9447C82.4839 74.9501 81.4735 72.2538 79.8405 69.9161C78.9707 68.7172 78.0404 67.626 76.989 66.7503C76.0441 65.9345 74.5058 64.9264 73.2437 64.9247C72.9699 64.9123 72.7883 65.2354 72.8804 65.5709C73.4304 66.5897 74.6489 67.4178 75.4872 68.1735C76.4781 69.157 77.2558 70.0204 78.019 71.1592C79.4993 73.2692 80.6308 75.75 81.0477 78.2537C81.2174 79.2002 82.8744 78.9988 82.7652 77.9447Z" fill="#FF8F6B"/>
    <path d="M54.2993 71.4138C55.3796 71.7387 56.506 72.2313 57.4653 72.7715C57.9982 73.0716 58.5312 73.3718 59.0641 73.6719C59.3838 73.852 59.7036 74.0321 59.9773 74.0444C60.251 74.0568 60.4642 74.1768 60.7379 74.1892C61.0116 74.2016 61.1932 73.8785 61.0406 73.6508C60.8879 73.423 60.7353 73.1953 60.6893 73.0276C60.5366 72.7999 60.1103 72.5597 59.9576 72.332C59.4247 72.0319 58.8918 71.7317 58.1917 71.4793C57.0653 70.9867 55.8784 70.6018 54.6309 70.3246C53.9309 70.0721 53.5992 71.1613 54.2993 71.4138Z" fill="#FF8F6B"/>
    <path d="M152.431 162.117C156.445 161.966 160.49 162.259 164.446 163.211C166.287 163.681 168.235 164.21 170.061 164.955C171.081 165.388 171.995 165.761 173.015 166.193C173.761 166.613 174.507 167.033 175.328 167.071C175.602 167.083 175.783 166.76 175.631 166.532C175.066 165.789 174.26 165.476 173.407 164.996C172.448 164.456 171.534 164.083 170.575 163.543C168.702 162.63 166.708 161.933 164.654 161.343C160.546 160.164 156.44 159.978 152.123 160.667C151.454 160.858 151.609 162.08 152.431 162.117Z" fill="#FF8F6B"/>
    <path d="M149.413 153.753C153.485 152.501 157.819 152.531 162.046 152.5C164.13 152.539 166.38 152.53 168.509 152.737C169.711 152.846 170.806 152.896 171.901 152.945C172.996 152.994 174.076 153.319 175.232 153.261C175.505 153.273 175.687 152.95 175.428 152.662C174.696 151.967 173.555 151.75 172.642 151.377C171.515 150.884 170.374 150.667 169.173 150.558C166.77 150.339 164.306 150.228 161.889 150.284C157.281 150.242 153.039 150.548 148.771 152.398C148.042 152.697 148.638 153.883 149.413 153.753Z" fill="#FF8F6B"/>
    <path d="M161.227 93.0458C161.302 92.6626 161.484 92.3395 161.619 91.8486C161.74 91.6332 161.694 91.4654 161.755 91.3577C161.815 91.25 161.876 91.1423 161.83 90.9745C161.89 90.8668 161.784 90.8068 161.844 90.699C161.798 90.5313 161.752 90.3635 161.645 90.3034C161.539 90.2434 161.372 90.291 161.204 90.3387C161.144 90.4464 161.037 90.3863 160.977 90.494C160.916 90.6017 160.855 90.7094 160.795 90.8171C160.674 91.0325 160.553 91.248 160.538 91.5234C160.357 91.8466 160.282 92.2298 160.207 92.6129L160.267 92.5052L160.207 92.6129C160.146 92.7207 160.132 92.9961 160.178 93.1639C160.224 93.3317 160.377 93.5595 160.544 93.5119C160.65 93.5719 160.924 93.5844 160.985 93.4767C160.985 93.4767 161.106 93.2612 161.227 93.0458Z" fill="#030229"/>
    <path d="M156.771 110.957C158.452 108.217 160.697 106.219 163.11 104.175C164.369 103.182 165.568 102.298 166.874 101.473C168.18 100.648 169.364 100.039 170.41 98.9268C170.532 98.7113 170.5 98.2682 170.166 98.3635C169.391 98.4942 168.889 98.6372 168.16 98.9357C167.537 99.2941 166.854 99.7603 166.232 100.119C164.866 101.051 163.5 101.983 162.179 103.084C159.767 105.128 157.599 107.736 155.918 110.477C155.722 111.075 156.468 111.496 156.771 110.957Z" fill="#FF8F6B"/>
    <path d="M176.11 98.0243C176.338 97.869 176.505 97.8213 176.733 97.6659C176.733 97.6659 176.672 97.7736 176.566 97.7136C176.566 97.7136 176.626 97.6059 176.733 97.6659L176.9 97.6182C177.067 97.5705 177.067 97.5705 177.234 97.5228C177.629 97.3198 178.07 97.2844 178.465 97.0814C178.86 96.8783 179.3 96.843 179.695 96.6399C179.923 96.4845 180.197 96.4969 180.424 96.3415C180.485 96.2338 180.591 96.2938 180.652 96.1861C180.819 96.1384 180.88 96.0307 180.94 95.923C181.168 95.7676 181.136 95.3244 180.817 95.1443C180.71 95.0843 180.603 95.0243 180.39 94.9042C180.284 94.8442 180.223 94.9519 180.117 94.8918C180.117 94.8918 180.117 94.8918 180.01 94.8318C180.117 94.8918 180.117 94.8918 180.01 94.8318C179.797 94.7118 179.462 94.8071 179.189 94.7948C178.641 94.7701 178.14 94.9131 177.638 95.0561C177.137 95.1992 176.636 95.3422 176.18 95.653C175.785 95.8561 175.223 96.1068 174.935 96.3699C174.54 96.573 174.344 97.1716 174.649 97.6271C175.228 98.095 175.715 98.2274 176.11 98.0243Z" fill="#FF8F6B"/>
    <path d="M161.057 116.065C161.861 115.383 162.711 114.87 163.515 114.188C164.319 113.506 165.063 112.933 165.974 112.311C166.824 111.797 167.628 111.116 168.478 110.602C169.329 110.088 170.392 109.694 170.983 108.892C171.165 108.569 170.906 108.281 170.692 108.161C169.718 107.897 168.747 108.626 167.851 108.972C166.787 109.366 165.877 109.987 164.966 110.609C164.055 111.23 163.251 111.912 162.386 112.701C162.037 113.072 161.582 113.383 161.279 113.921C160.931 114.292 160.628 114.831 160.386 115.262C159.976 115.74 160.601 116.376 161.057 116.065Z" fill="#FF8F6B"/>
    <path d="M173.626 107.686C174.142 107.268 174.704 107.017 175.266 106.766C176.056 106.36 176.693 105.726 177.422 105.428C178.151 105.129 178.805 105.214 179.58 105.083C180.355 104.953 181.13 104.822 181.966 104.584C185.081 103.785 188.395 103.383 191.634 103.363C192.455 103.4 193.276 103.437 194.098 103.474C194.645 103.499 195.527 103.428 195.51 102.71C195.582 101.333 192.663 101.532 191.842 101.495C188.603 101.515 185.428 102.421 182.16 102.991C181.278 103.062 180.442 103.3 179.607 103.538C178.771 103.777 177.921 104.291 177.085 104.529C176.249 104.767 175.428 104.73 174.592 104.969C173.924 105.16 173.241 105.626 172.664 106.152C171.753 106.773 172.548 108.356 173.626 107.686Z" fill="#FF8F6B"/>
    <path opacity="0.5" d="M119.892 84.9404C120.803 84.3188 121.515 83.3017 121.953 82.2723C122.559 81.1952 123.057 80.0581 123.389 78.9686C123.51 78.7532 123.084 78.5131 122.963 78.7285C122.311 79.6379 121.766 80.6073 121.161 81.6844C120.676 82.546 120.131 83.5154 119.388 84.0893C118.872 84.5078 119.376 85.3589 119.892 84.9404Z" fill="#EF37FF"/>
    <g opacity="0.5">
        <path d="M127.976 71.0581C128.521 70.0888 129.173 69.1794 129.551 68.2577C129.989 67.2283 130.154 66.1865 130.105 65.0247C130.119 64.7492 129.633 64.6168 129.557 65C129.015 66.9634 127.986 68.7945 126.956 70.6256C126.547 71.1041 127.613 71.7044 127.976 71.0581Z" fill="#EF37FF"/>
    </g>
    <path opacity="0.5" d="M128.493 59.1537C128.764 58.172 128.928 57.1302 128.926 56.1361C128.894 55.6929 129.03 55.2021 128.998 54.7589C128.967 54.3157 129.117 53.5494 128.691 53.3092C128.477 53.1892 128.264 53.0691 128.037 53.2245C127.581 53.5353 127.659 54.1462 127.63 54.6971C127.661 55.1403 127.632 55.6912 127.557 56.0744C127.56 57.0685 127.456 58.0025 127.245 58.8766C127.095 59.6429 128.343 59.9201 128.493 59.1537Z" fill="#EF37FF"/>
    <path opacity="0.5" d="M134.244 60.4071C134.941 59.6655 135.593 58.7562 136.244 57.8468C136.487 57.416 136.789 56.8774 137.032 56.4466C137.274 56.0157 137.576 55.4772 137.605 54.9263C137.681 54.5431 137.254 54.303 136.966 54.5661C136.511 54.8769 136.208 55.4154 135.966 55.8463C135.723 56.2771 135.481 56.7079 135.239 57.1388C134.755 58.0005 134.164 58.8021 133.573 59.6038C133.452 59.8192 133.376 60.2023 133.59 60.3224C133.682 60.6579 134.062 60.7303 134.244 60.4071Z" fill="#EF37FF"/>
    <path opacity="0.5" d="M136.539 65.812C137.358 64.855 138.329 64.1257 139.346 63.5642C140.364 63.0027 141.534 62.6689 142.658 62.1674C142.885 62.012 142.96 61.6289 142.687 61.6165C141.332 61.2793 139.935 61.7684 138.857 62.4377C137.672 63.0469 136.686 64.0516 135.868 65.0086C135.291 65.5348 136.069 66.3983 136.539 65.812Z" fill="#EF37FF"/>
    <path d="M182.351 148.336C182.518 148.289 182.579 148.181 182.746 148.133C182.974 147.978 183.201 147.822 183.322 147.607C183.443 147.392 183.504 147.284 183.732 147.128L183.792 147.021C183.853 146.913 183.913 146.805 183.974 146.698C184.095 146.482 184.216 146.267 184.231 145.991C184.352 145.776 184.306 145.608 184.26 145.44C184.289 144.889 184.044 144.326 183.571 143.918C183.724 144.146 183.877 144.374 183.969 144.709C183.877 144.374 183.724 144.146 183.511 144.026C183.358 143.798 183.145 143.678 182.978 143.726C182.765 143.606 182.598 143.654 182.324 143.641C182.05 143.629 181.716 143.724 181.488 143.88C181.929 143.844 182.263 143.749 182.704 143.714C182.598 143.654 182.43 143.701 182.324 143.641C182.05 143.629 181.776 143.616 181.609 143.664C181.442 143.712 181.275 143.76 181.108 143.807C181.047 143.915 180.941 143.855 180.88 143.963C180.82 144.07 180.652 144.118 180.592 144.226C180.759 144.178 180.88 143.963 181.047 143.915C180.987 144.023 180.88 143.963 180.82 144.07C180.759 144.178 180.652 144.118 180.592 144.226C180.425 144.273 180.304 144.489 180.136 144.536C179.909 144.692 179.681 144.847 179.499 145.17C179.272 145.326 179.197 145.709 179.076 145.924C179.061 146.2 179.047 146.475 179.032 146.751C179.018 147.026 179.11 147.362 179.262 147.589C179.308 147.757 179.522 147.877 179.568 148.045C179.827 148.333 180.253 148.573 180.634 148.645C180.801 148.598 181.014 148.718 181.181 148.67C181.728 148.695 182.123 148.492 182.351 148.336Z" fill="#FF8F6B"/>
    <path d="M199.524 108.799C199.585 108.692 199.478 108.632 199.539 108.524C199.492 108.356 199.446 108.188 199.507 108.081C199.507 108.081 199.461 107.913 199.354 107.853C199.202 107.625 199.262 107.518 199.003 107.23C198.896 107.17 198.744 106.942 198.637 106.882C198.531 106.822 198.317 106.702 198.317 106.702L197.937 106.63C197.663 106.617 197.496 106.665 197.269 106.82C197.102 106.868 197.102 106.868 197.041 106.976C196.98 107.083 196.874 107.023 196.813 107.131C196.586 107.286 196.298 107.549 196.116 107.872C195.934 108.195 195.92 108.471 195.845 108.854C195.862 109.572 196.213 110.196 196.746 110.496C197.279 110.796 198.1 110.833 198.616 110.415C198.844 110.259 199.132 109.996 199.313 109.673C199.435 109.458 199.449 109.182 199.524 108.799Z" fill="#FF8F6B"/>
    <path d="M113.699 77.4822C114.481 74.0938 116.664 71.2104 118.831 68.6023C118.952 68.3869 118.8 68.1591 118.572 68.3145C115.871 70.6224 113.675 73.7813 112.832 77.2775C112.529 77.816 113.503 78.0808 113.699 77.4822Z" fill="#030229"/>
</svg>

